<svg id="visual" viewBox="0 0 900 600" width="900" height="600" xmlns="http://www.w3.org/2000/svg" xmlns:xlink="http://www.w3.org/1999/xlink" version="1.1"><g stroke-width="1" stroke-linejoin="bevel"><path d="M430 234L265 194L362 293Z" fill="#e9baa5" stroke="#e9baa5"></path><path d="M265 194L329 304L362 293Z" fill="#89a366" stroke="#89a366"></path><path d="M430 234L291 121L265 194Z" fill="#e9baa5" stroke="#e9baa5"></path><path d="M291 121L219 132L265 194Z" fill="#009473" stroke="#009473"></path><path d="M265 194L210 282L329 304Z" fill="#a3a66b" stroke="#a3a66b"></path><path d="M173 227L210 282L265 194Z" fill="#a3a66b" stroke="#a3a66b"></path><path d="M430 234L418 61L291 121Z" fill="#a3a66b" stroke="#a3a66b"></path><path d="M291 121L268 0L219 132Z" fill="#89a366" stroke="#89a366"></path><path d="M219 132L173 227L265 194Z" fill="#a3a66b" stroke="#a3a66b"></path><path d="M430 234L497 109L418 61Z" fill="#dcb393" stroke="#dcb393"></path><path d="M533 299L539 233L430 234Z" fill="#009473" stroke="#009473"></path><path d="M430 234L539 233L497 109Z" fill="#ccae82" stroke="#ccae82"></path><path d="M439 413L533 299L362 293Z" fill="#dcb393" stroke="#dcb393"></path><path d="M362 293L533 299L430 234Z" fill="#89a366" stroke="#89a366"></path><path d="M210 282L233 379L329 304Z" fill="#b9aa75" stroke="#b9aa75"></path><path d="M329 304L439 413L362 293Z" fill="#ccae82" stroke="#ccae82"></path><path d="M112 307L233 379L210 282Z" fill="#e9baa5" stroke="#e9baa5"></path><path d="M497 0L376 0L418 61Z" fill="#f7caca" stroke="#f7caca"></path><path d="M418 61L376 0L291 121Z" fill="#009473" stroke="#009473"></path><path d="M233 379L277 411L329 304Z" fill="#f7caca" stroke="#f7caca"></path><path d="M219 132L133 223L173 227Z" fill="#499a6b" stroke="#499a6b"></path><path d="M173 227L112 307L210 282Z" fill="#499a6b" stroke="#499a6b"></path><path d="M277 411L439 413L329 304Z" fill="#499a6b" stroke="#499a6b"></path><path d="M376 0L268 0L291 121Z" fill="#e9baa5" stroke="#e9baa5"></path><path d="M219 132L60 85L133 223Z" fill="#f1c1b8" stroke="#f1c1b8"></path><path d="M439 413L530 381L533 299Z" fill="#ccae82" stroke="#ccae82"></path><path d="M629 208L614 130L539 233Z" fill="#f1c1b8" stroke="#f1c1b8"></path><path d="M133 223L112 307L173 227Z" fill="#009473" stroke="#009473"></path><path d="M164 497L301 463L277 411Z" fill="#b9aa75" stroke="#b9aa75"></path><path d="M588 0L497 0L497 109Z" fill="#6c9e66" stroke="#6c9e66"></path><path d="M497 109L497 0L418 61Z" fill="#b9aa75" stroke="#b9aa75"></path><path d="M164 497L277 411L233 379Z" fill="#6c9e66" stroke="#6c9e66"></path><path d="M277 411L301 463L439 413Z" fill="#a3a66b" stroke="#a3a66b"></path><path d="M566 532L589 405L530 381Z" fill="#499a6b" stroke="#499a6b"></path><path d="M539 233L614 130L497 109Z" fill="#f1c1b8" stroke="#f1c1b8"></path><path d="M629 208L539 233L623 306Z" fill="#f1c1b8" stroke="#f1c1b8"></path><path d="M268 0L162 0L219 132Z" fill="#ccae82" stroke="#ccae82"></path><path d="M133 223L0 163L112 307Z" fill="#ccae82" stroke="#ccae82"></path><path d="M623 306L539 233L533 299Z" fill="#499a6b" stroke="#499a6b"></path><path d="M530 381L623 306L533 299Z" fill="#f1c1b8" stroke="#f1c1b8"></path><path d="M461 537L530 381L439 413Z" fill="#499a6b" stroke="#499a6b"></path><path d="M530 381L589 405L623 306Z" fill="#b9aa75" stroke="#b9aa75"></path><path d="M162 0L60 85L219 132Z" fill="#89a366" stroke="#89a366"></path><path d="M614 130L588 0L497 109Z" fill="#f7caca" stroke="#f7caca"></path><path d="M0 329L89 396L112 307Z" fill="#dcb393" stroke="#dcb393"></path><path d="M112 307L89 396L233 379Z" fill="#b9aa75" stroke="#b9aa75"></path><path d="M162 0L105 0L60 85Z" fill="#e9baa5" stroke="#e9baa5"></path><path d="M297 600L433 535L301 463Z" fill="#a3a66b" stroke="#a3a66b"></path><path d="M301 463L433 535L439 413Z" fill="#499a6b" stroke="#499a6b"></path><path d="M89 396L164 497L233 379Z" fill="#6c9e66" stroke="#6c9e66"></path><path d="M433 535L461 537L439 413Z" fill="#89a366" stroke="#89a366"></path><path d="M697 162L667 61L614 130Z" fill="#b9aa75" stroke="#b9aa75"></path><path d="M614 130L667 61L588 0Z" fill="#e9baa5" stroke="#e9baa5"></path><path d="M697 162L614 130L629 208Z" fill="#6c9e66" stroke="#6c9e66"></path><path d="M699 289L629 208L623 306Z" fill="#a3a66b" stroke="#a3a66b"></path><path d="M699 289L697 162L629 208Z" fill="#499a6b" stroke="#499a6b"></path><path d="M0 77L0 163L60 85Z" fill="#499a6b" stroke="#499a6b"></path><path d="M60 85L0 163L133 223Z" fill="#b9aa75" stroke="#b9aa75"></path><path d="M677 361L699 289L623 306Z" fill="#499a6b" stroke="#499a6b"></path><path d="M676 490L677 361L589 405Z" fill="#6c9e66" stroke="#6c9e66"></path><path d="M589 405L677 361L623 306Z" fill="#f1c1b8" stroke="#f1c1b8"></path><path d="M0 163L0 329L112 307Z" fill="#b9aa75" stroke="#b9aa75"></path><path d="M89 396L92 500L164 497Z" fill="#ccae82" stroke="#ccae82"></path><path d="M0 0L0 77L60 85Z" fill="#009473" stroke="#009473"></path><path d="M0 420L92 500L89 396Z" fill="#dcb393" stroke="#dcb393"></path><path d="M195 600L297 600L301 463Z" fill="#f7caca" stroke="#f7caca"></path><path d="M461 537L566 532L530 381Z" fill="#dcb393" stroke="#dcb393"></path><path d="M195 600L301 463L164 497Z" fill="#a3a66b" stroke="#a3a66b"></path><path d="M433 535L423 600L461 537Z" fill="#dcb393" stroke="#dcb393"></path><path d="M461 537L526 600L566 532Z" fill="#499a6b" stroke="#499a6b"></path><path d="M297 600L423 600L433 535Z" fill="#dcb393" stroke="#dcb393"></path><path d="M105 0L0 0L60 85Z" fill="#ccae82" stroke="#ccae82"></path><path d="M0 329L0 420L89 396Z" fill="#499a6b" stroke="#499a6b"></path><path d="M104 600L195 600L164 497Z" fill="#dcb393" stroke="#dcb393"></path><path d="M104 600L164 497L92 500Z" fill="#e9baa5" stroke="#e9baa5"></path><path d="M423 600L526 600L461 537Z" fill="#a3a66b" stroke="#a3a66b"></path><path d="M566 532L676 490L589 405Z" fill="#6c9e66" stroke="#6c9e66"></path><path d="M680 600L676 490L566 532Z" fill="#e9baa5" stroke="#e9baa5"></path><path d="M782 306L790 219L699 289Z" fill="#dcb393" stroke="#dcb393"></path><path d="M784 131L737 0L667 61Z" fill="#f1c1b8" stroke="#f1c1b8"></path><path d="M667 61L737 0L588 0Z" fill="#b9aa75" stroke="#b9aa75"></path><path d="M784 131L667 61L697 162Z" fill="#dcb393" stroke="#dcb393"></path><path d="M790 219L697 162L699 289Z" fill="#ccae82" stroke="#ccae82"></path><path d="M782 306L699 289L677 361Z" fill="#6c9e66" stroke="#6c9e66"></path><path d="M790 219L784 131L697 162Z" fill="#f1c1b8" stroke="#f1c1b8"></path><path d="M835 397L782 306L677 361Z" fill="#6c9e66" stroke="#6c9e66"></path><path d="M526 600L562 600L566 532Z" fill="#e9baa5" stroke="#e9baa5"></path><path d="M0 518L104 600L92 500Z" fill="#a3a66b" stroke="#a3a66b"></path><path d="M0 420L0 518L92 500Z" fill="#a3a66b" stroke="#a3a66b"></path><path d="M784 131L806 0L737 0Z" fill="#f7caca" stroke="#f7caca"></path><path d="M900 104L806 0L784 131Z" fill="#ccae82" stroke="#ccae82"></path><path d="M562 600L680 600L566 532Z" fill="#499a6b" stroke="#499a6b"></path><path d="M676 490L794 464L677 361Z" fill="#dcb393" stroke="#dcb393"></path><path d="M803 600L794 464L676 490Z" fill="#a3a66b" stroke="#a3a66b"></path><path d="M900 319L900 217L790 219Z" fill="#b9aa75" stroke="#b9aa75"></path><path d="M790 219L900 217L784 131Z" fill="#dcb393" stroke="#dcb393"></path><path d="M794 464L835 397L677 361Z" fill="#499a6b" stroke="#499a6b"></path><path d="M0 518L0 600L104 600Z" fill="#6c9e66" stroke="#6c9e66"></path><path d="M900 319L790 219L782 306Z" fill="#89a366" stroke="#89a366"></path><path d="M900 217L900 104L784 131Z" fill="#009473" stroke="#009473"></path><path d="M835 397L900 319L782 306Z" fill="#dcb393" stroke="#dcb393"></path><path d="M900 390L900 319L835 397Z" fill="#499a6b" stroke="#499a6b"></path><path d="M900 496L835 397L794 464Z" fill="#a3a66b" stroke="#a3a66b"></path><path d="M900 496L900 390L835 397Z" fill="#f1c1b8" stroke="#f1c1b8"></path><path d="M900 104L900 0L806 0Z" fill="#009473" stroke="#009473"></path><path d="M680 600L803 600L676 490Z" fill="#e9baa5" stroke="#e9baa5"></path><path d="M803 600L900 496L794 464Z" fill="#b9aa75" stroke="#b9aa75"></path><path d="M803 600L900 600L900 496Z" fill="#dcb393" stroke="#dcb393"></path></g></svg>